<?xml version="1.0" encoding="UTF-8" standalone="no"?>
<svg width="183px" height="67px" viewBox="0 0 183 67" version="1.1" xmlns="http://www.w3.org/2000/svg" xmlns:xlink="http://www.w3.org/1999/xlink" xmlns:sketch="http://www.bohemiancoding.com/sketch/ns">
    <!-- Generator: Sketch 3.3.3 (12081) - http://www.bohemiancoding.com/sketch -->
    <title>logo</title>
    <desc>Created with Sketch.</desc>
    <defs>
        <path d="M0.0852511896,67 L0.0852511896,0.65625 L22.76646,0.65625 C29.5012423,0.65625 35.4750342,2.12136697 40.6880147,5.05164486 C45.9009953,7.98192275 49.8835232,11.9563561 52.6357179,16.9750641 C55.3879126,21.993772 56.7639893,27.627592 56.7639893,33.8766929 C56.7639893,38.5716133 55.9545324,42.950775 54.3355943,47.0143096 C52.7166563,51.0778441 50.450177,54.5827924 47.5360885,57.5292597 C44.622,60.475727 41.036106,62.7907737 36.7782989,64.4744693 C32.5204918,66.1581648 27.8499255,67 22.76646,67 L0.0852511896,67 Z M8.34179402,59.6176794 L22.76646,59.6176794 C27.9794406,59.6176794 32.5447774,58.4520614 36.4626075,56.1207906 C40.3804376,53.7895198 43.3187661,50.6973945 45.2776812,46.8443219 C47.2365962,42.9912493 48.2160391,38.6687496 48.2160391,33.8766929 C48.2160391,29.0198787 47.2527854,24.6650007 45.3262491,20.8119281 C43.3997128,16.9588555 40.485668,13.8667302 36.5840273,11.5354594 C32.6823865,9.20418856 28.0765768,8.03857064 22.76646,8.03857064 L8.34179402,8.03857064 L8.34179402,59.6176794 Z M69.6830504,67 L69.6830504,0.65625 L113.15132,0.65625 L113.15132,8.03857064 L77.9395932,8.03857064 L77.9395932,29.4084462 L112.422802,29.4084462 L112.422802,36.7421989 L77.9395932,36.7421989 L77.9395932,59.6176794 L113.15132,59.6176794 L113.15132,67 L69.6830504,67 Z M119.368011,0.65625 L128.838751,0.65625 L151.228553,57.9663708 L173.618354,0.65625 L183.040527,0.65625 L156.37675,67 L146.128923,67 L119.368011,0.65625 Z" id="path-1"></path>
    </defs>
    <g id="Welcome" stroke="none" stroke-width="1" fill="none" fill-rule="evenodd" sketch:type="MSPage">
        <g id="Home" sketch:type="MSArtboardGroup" transform="translate(-628.000000, -479.000000)">
            <g id="logo" sketch:type="MSLayerGroup" transform="translate(628.000000, 479.000000)">
                <mask id="mask-2" sketch:name="Mask" fill="white">
                    <use xlink:href="#path-1"></use>
                </mask>
                <use id="Mask" fill="#A3A3A3" sketch:type="MSShapeGroup" xlink:href="#path-1"></use>
                <g id="Group" mask="url(#mask-2)" sketch:type="MSShapeGroup">
                    <g transform="translate(-85.000000, -116.000000)">
                        <path d="M66.1210938,27.1992188 L0.203125,135.195312 L136.46875,321.625 L369.289062,126.90625 L66.1210938,27.1992188 Z" id="Path-7" fill="#E6E6E6"></path>
                        <path d="M225.257812,0.828125 L404.125,120.507812 L131.910156,322.667969 L66.9882812,207.183594 L225.257812,0.828125 Z" id="Path-8" fill="#9FCA63"></path>
                        <path d="M150.729419,91.81596 L376.847659,13.410156 L300.035159,294.656256 L150.729419,91.81596 Z" id="Path-9" fill="#5498E4"></path>
                        <path d="M241.622344,216.240923 L288.010545,43.9157054 L192.31737,148.474403 L241.622344,216.240923 Z" id="Path-10" fill="#A162B9"></path>
                    </g>
                </g>
            </g>
        </g>
    </g>
</svg>